<svg width="32" height="37" viewBox="0 0 32 37" fill="none" xmlns="http://www.w3.org/2000/svg">
<path d="M0 9.23108V27.6932L15.9894 36.9243L31.9775 27.6932V9.23108L15.9894 0L0 9.23108ZM30.8577 27.0472L30.7994 27.0801L15.9894 35.6373L1.12109 27.0535V9.87841L1.17939 9.84547L15.9894 1.29465L30.8577 9.87841V27.0472Z" fill="#FCBC2B"/>
<path d="M17.1101 11.8027L13.5631 10.4257C13.4439 10.3788 13.3112 10.3788 13.1919 10.4257C13.1344 10.4472 13.0818 10.4798 13.037 10.5218C12.9922 10.5638 12.9562 10.6142 12.931 10.6702L11.459 13.9955C11.4345 14.0501 11.4219 14.1093 11.4219 14.1691C11.4219 14.2289 11.4345 14.288 11.459 14.3426C11.5107 14.4556 11.6049 14.5435 11.7212 14.5871L15.2682 15.9654C15.3273 15.9879 15.39 15.9995 15.4532 15.9996C15.5468 16.001 15.6388 15.9754 15.7181 15.9257C15.7975 15.876 15.8608 15.8045 15.9004 15.7196L17.3723 12.3943C17.396 12.3385 17.408 12.2783 17.4075 12.2177C17.407 12.157 17.394 12.0971 17.3694 12.0417C17.3449 11.9862 17.3092 11.9364 17.2646 11.8953C17.22 11.8542 17.1674 11.8227 17.1101 11.8027Z" fill="#4299E1"/>
<path d="M17.1105 11.8027L15.337 11.1135L13.4951 15.2762L15.2686 15.9653C15.3277 15.9879 15.3903 15.9995 15.4536 15.9995C15.5472 16.001 15.6392 15.9753 15.7185 15.9256C15.7979 15.876 15.8612 15.8044 15.9007 15.7196L17.3727 12.3942C17.3964 12.3384 17.4084 12.2783 17.4079 12.2176C17.4074 12.157 17.3944 12.0971 17.3698 12.0416C17.3453 11.9862 17.3096 11.9364 17.265 11.8952C17.2204 11.8541 17.1678 11.8226 17.1105 11.8027V11.8027Z" fill="#4C51BF"/>
<path d="M15.6386 15.128L12.0852 13.7497C11.9904 13.7123 11.8864 13.7044 11.787 13.727C11.6875 13.7496 11.5972 13.8016 11.5279 13.8764L8.95754 16.7748C8.90789 16.8299 8.87329 16.8968 8.85709 16.9691C8.84089 17.0415 8.84364 17.1168 8.86507 17.1878L10.2345 21.7026C10.2557 21.7698 10.292 21.8313 10.3405 21.8824C10.389 21.9336 10.4484 21.973 10.5144 21.9978C10.5739 22.0204 10.637 22.032 10.7006 22.032C10.7826 22.0321 10.8634 22.0125 10.9363 21.975L15.3155 19.6947C15.3829 19.6613 15.4408 19.6113 15.4838 19.5495C15.5267 19.4878 15.5534 19.4161 15.5613 19.3413L15.9414 15.5904C15.9498 15.4905 15.9245 15.3908 15.8697 15.307C15.8148 15.2232 15.7334 15.1602 15.6386 15.128Z" fill="#DEECF1"/>
<path d="M15.6382 15.128L13.8647 14.4388L10.5166 22.0016C10.5761 22.0242 10.6392 22.0358 10.7028 22.0358C10.7848 22.0359 10.8656 22.0163 10.9384 21.9788L15.3177 19.6985C15.3851 19.6651 15.443 19.6151 15.4859 19.5533C15.5289 19.4916 15.5555 19.4199 15.5635 19.3451L15.9435 15.5942C15.9527 15.4934 15.9275 15.3925 15.8721 15.3079C15.8166 15.2233 15.7342 15.1598 15.6382 15.128Z" fill="#A2D8F4"/>
<path d="M10.6994 22.0358C10.6362 22.0355 10.5736 22.0239 10.5145 22.0016C10.4572 21.9815 10.4046 21.9498 10.36 21.9086C10.3154 21.8673 10.2798 21.8174 10.2554 21.7618C10.2309 21.7062 10.2181 21.6462 10.2178 21.5854C10.2175 21.5247 10.2296 21.4646 10.2535 21.4087L12.0384 17.374C12.0935 17.2606 12.1894 17.1724 12.307 17.127C12.4245 17.0817 12.5549 17.0825 12.6718 17.1295C12.7291 17.1495 12.7817 17.181 12.8263 17.2221C12.8709 17.2632 12.9066 17.313 12.9311 17.3685C12.9557 17.4239 12.9687 17.4838 12.9692 17.5445C12.9697 17.6051 12.9577 17.6652 12.934 17.7211L11.1479 21.7558C11.1081 21.8407 11.0446 21.9124 10.965 21.962C10.8855 22.0117 10.7932 22.0373 10.6994 22.0358V22.0358Z" fill="#4C51BF"/>
<path d="M19.702 24.9481H9.3295C9.2671 24.9528 9.2044 24.9446 9.14533 24.9239C9.08627 24.9032 9.03211 24.8706 8.98624 24.828C8.94037 24.7854 8.90379 24.7338 8.87877 24.6765C8.85374 24.6191 8.84082 24.5572 8.84082 24.4946C8.84082 24.4321 8.85374 24.3701 8.87877 24.3128C8.90379 24.2554 8.94037 24.2039 8.98624 24.1613C9.03211 24.1187 9.08627 24.0861 9.14533 24.0654C9.2044 24.0447 9.2671 24.0364 9.3295 24.0411H19.702C19.8388 24.0495 19.976 24.0299 20.1049 23.9833C20.2339 23.9367 20.352 23.8642 20.4519 23.7703C20.5518 23.6764 20.6314 23.563 20.6858 23.4371C20.7402 23.3113 20.7683 23.1756 20.7683 23.0385C20.7683 22.9013 20.7402 22.7657 20.6858 22.6398C20.6314 22.5139 20.5518 22.4005 20.4519 22.3066C20.352 22.2127 20.2339 22.1402 20.1049 22.0936C19.976 22.047 19.8388 22.0274 19.702 22.0358C18.5771 22.0358 17.6612 21.1795 17.6612 20.1268C17.6612 19.0741 18.5771 18.2177 19.702 18.2177H24.8869C24.9493 18.213 25.012 18.2213 25.0711 18.242C25.1302 18.2627 25.1843 18.2953 25.2302 18.3378C25.2761 18.3804 25.3127 18.432 25.3377 18.4894C25.3627 18.5467 25.3756 18.6086 25.3756 18.6712C25.3756 18.7338 25.3627 18.7957 25.3377 18.8531C25.3127 18.9104 25.2761 18.962 25.2302 19.0046C25.1843 19.0471 25.1302 19.0798 25.0711 19.1004C25.012 19.1211 24.9493 19.1294 24.8869 19.1247H19.702C19.5651 19.1163 19.428 19.136 19.299 19.1825C19.17 19.2291 19.0519 19.3016 18.952 19.3955C18.8522 19.4895 18.7726 19.6029 18.7181 19.7287C18.6637 19.8546 18.6357 19.9902 18.6357 20.1274C18.6357 20.2645 18.6637 20.4002 18.7181 20.526C18.7726 20.6519 18.8522 20.7653 18.952 20.8592C19.0519 20.9532 19.17 21.0256 19.299 21.0722C19.428 21.1188 19.5651 21.1385 19.702 21.13C20.8256 21.13 21.7415 21.9864 21.7415 23.0391C21.7415 24.0918 20.8256 24.9481 19.702 24.9481Z" fill="#4299E1"/>
<path d="M24.8874 18.2177H19.7025C18.5776 18.2177 17.6617 19.074 17.6617 20.1267C17.6617 21.1794 18.5776 22.0358 19.7025 22.0358C19.8393 22.0273 19.9765 22.047 20.1054 22.0936C20.2344 22.1402 20.3525 22.2127 20.4524 22.3066C20.5523 22.4005 20.6319 22.5139 20.6863 22.6398C20.7407 22.7656 20.7688 22.9013 20.7688 23.0384C20.7688 23.1756 20.7407 23.3112 20.6863 23.4371C20.6319 23.563 20.5523 23.6763 20.4524 23.7703C20.3525 23.8642 20.2344 23.9367 20.1054 23.9833C19.9765 24.0299 19.8393 24.0495 19.7025 24.0411H17.1094V24.9468H19.7025C20.8261 24.9468 21.742 24.0905 21.742 23.0391C21.742 21.9876 20.8261 21.13 19.7025 21.13C19.5647 21.1398 19.4264 21.1211 19.2962 21.0752C19.166 21.0292 19.0467 20.9569 18.9456 20.8627C18.8445 20.7686 18.764 20.6547 18.7088 20.5281C18.6537 20.4014 18.6253 20.2648 18.6253 20.1267C18.6253 19.9886 18.6537 19.852 18.7088 19.7254C18.764 19.5988 18.8445 19.4848 18.9456 19.3907C19.0467 19.2966 19.166 19.2243 19.2962 19.1783C19.4264 19.1323 19.5647 19.1136 19.7025 19.1234H24.8874C24.9489 19.1267 25.0104 19.1174 25.0682 19.0961C25.126 19.0748 25.1788 19.042 25.2235 18.9996C25.2682 18.9572 25.3037 18.9062 25.3281 18.8496C25.3524 18.7931 25.3649 18.7321 25.3649 18.6705C25.3649 18.609 25.3524 18.548 25.3281 18.4915C25.3037 18.4349 25.2682 18.3839 25.2235 18.3415C25.1788 18.2991 25.126 18.2663 25.0682 18.245C25.0104 18.2237 24.9489 18.2144 24.8874 18.2177V18.2177Z" fill="#F6AD55"/>
<path d="M0 9.23108V27.6932L15.9894 36.9243L31.9775 27.6932V9.23108L15.9894 0L0 9.23108ZM30.8577 27.0472L30.7994 27.0801L15.9894 35.6373L1.12109 27.0535V9.87841L1.17939 9.84547L15.9894 1.29465L30.8577 9.87841V27.0472Z" fill="#FCBC2B"/>
<path d="M17.1101 11.8027L13.5631 10.4257C13.4439 10.3788 13.3112 10.3788 13.1919 10.4257C13.1344 10.4472 13.0818 10.4798 13.037 10.5218C12.9922 10.5638 12.9562 10.6142 12.931 10.6702L11.459 13.9955C11.4345 14.0501 11.4219 14.1093 11.4219 14.1691C11.4219 14.2289 11.4345 14.288 11.459 14.3426C11.5107 14.4556 11.6049 14.5435 11.7212 14.5871L15.2682 15.9654C15.3273 15.9879 15.39 15.9995 15.4532 15.9996C15.5468 16.001 15.6388 15.9754 15.7181 15.9257C15.7975 15.876 15.8608 15.8045 15.9004 15.7196L17.3723 12.3943C17.396 12.3385 17.408 12.2783 17.4075 12.2177C17.407 12.157 17.394 12.0971 17.3694 12.0417C17.3449 11.9862 17.3092 11.9364 17.2646 11.8953C17.22 11.8542 17.1674 11.8227 17.1101 11.8027Z" fill="#4299E1"/>
<path d="M17.1105 11.8027L15.337 11.1135L13.4951 15.2762L15.2686 15.9653C15.3277 15.9879 15.3903 15.9995 15.4536 15.9995C15.5472 16.001 15.6392 15.9753 15.7185 15.9256C15.7979 15.876 15.8612 15.8044 15.9007 15.7196L17.3727 12.3942C17.3964 12.3384 17.4084 12.2783 17.4079 12.2176C17.4074 12.157 17.3944 12.0971 17.3698 12.0416C17.3453 11.9862 17.3096 11.9364 17.265 11.8952C17.2204 11.8541 17.1678 11.8226 17.1105 11.8027V11.8027Z" fill="#4C51BF"/>
<path d="M15.6386 15.128L12.0852 13.7497C11.9904 13.7123 11.8864 13.7044 11.787 13.727C11.6875 13.7496 11.5972 13.8016 11.5279 13.8764L8.95754 16.7748C8.90789 16.8299 8.87329 16.8968 8.85709 16.9691C8.84089 17.0415 8.84364 17.1168 8.86507 17.1878L10.2345 21.7026C10.2557 21.7698 10.292 21.8313 10.3405 21.8824C10.389 21.9336 10.4484 21.973 10.5144 21.9978C10.5739 22.0204 10.637 22.032 10.7006 22.032C10.7826 22.0321 10.8634 22.0125 10.9363 21.975L15.3155 19.6947C15.3829 19.6613 15.4408 19.6113 15.4838 19.5495C15.5267 19.4878 15.5534 19.4161 15.5613 19.3413L15.9414 15.5904C15.9498 15.4905 15.9245 15.3908 15.8697 15.307C15.8148 15.2232 15.7334 15.1602 15.6386 15.128Z" fill="#DEECF1"/>
<path d="M15.6382 15.128L13.8647 14.4388L10.5166 22.0016C10.5761 22.0242 10.6392 22.0358 10.7028 22.0358C10.7848 22.0359 10.8656 22.0163 10.9384 21.9788L15.3177 19.6985C15.3851 19.6651 15.443 19.6151 15.4859 19.5533C15.5289 19.4916 15.5555 19.4199 15.5635 19.3451L15.9435 15.5942C15.9527 15.4934 15.9275 15.3925 15.8721 15.3079C15.8166 15.2233 15.7342 15.1598 15.6382 15.128Z" fill="#A2D8F4"/>
<path d="M10.6994 22.0358C10.6362 22.0355 10.5736 22.0239 10.5145 22.0016C10.4572 21.9815 10.4046 21.9498 10.36 21.9086C10.3154 21.8673 10.2798 21.8174 10.2554 21.7618C10.2309 21.7062 10.2181 21.6462 10.2178 21.5854C10.2175 21.5247 10.2296 21.4646 10.2535 21.4087L12.0384 17.374C12.0935 17.2606 12.1894 17.1724 12.307 17.127C12.4245 17.0817 12.5549 17.0825 12.6718 17.1295C12.7291 17.1495 12.7817 17.181 12.8263 17.2221C12.8709 17.2632 12.9066 17.313 12.9311 17.3685C12.9557 17.4239 12.9687 17.4838 12.9692 17.5445C12.9697 17.6051 12.9577 17.6652 12.934 17.7211L11.1479 21.7558C11.1081 21.8407 11.0446 21.9124 10.965 21.962C10.8855 22.0117 10.7932 22.0373 10.6994 22.0358V22.0358Z" fill="#4C51BF"/>
<path d="M19.702 24.9481H9.3295C9.2671 24.9528 9.2044 24.9446 9.14533 24.9239C9.08627 24.9032 9.03211 24.8706 8.98624 24.828C8.94037 24.7854 8.90379 24.7338 8.87877 24.6765C8.85374 24.6191 8.84082 24.5572 8.84082 24.4946C8.84082 24.4321 8.85374 24.3701 8.87877 24.3128C8.90379 24.2554 8.94037 24.2039 8.98624 24.1613C9.03211 24.1187 9.08627 24.0861 9.14533 24.0654C9.2044 24.0447 9.2671 24.0364 9.3295 24.0411H19.702C19.8388 24.0495 19.976 24.0299 20.1049 23.9833C20.2339 23.9367 20.352 23.8642 20.4519 23.7703C20.5518 23.6764 20.6314 23.563 20.6858 23.4371C20.7402 23.3113 20.7683 23.1756 20.7683 23.0385C20.7683 22.9013 20.7402 22.7657 20.6858 22.6398C20.6314 22.5139 20.5518 22.4005 20.4519 22.3066C20.352 22.2127 20.2339 22.1402 20.1049 22.0936C19.976 22.047 19.8388 22.0274 19.702 22.0358C18.5771 22.0358 17.6612 21.1795 17.6612 20.1268C17.6612 19.0741 18.5771 18.2177 19.702 18.2177H24.8869C24.9493 18.213 25.012 18.2213 25.0711 18.242C25.1302 18.2627 25.1843 18.2953 25.2302 18.3378C25.2761 18.3804 25.3127 18.432 25.3377 18.4894C25.3627 18.5467 25.3756 18.6086 25.3756 18.6712C25.3756 18.7338 25.3627 18.7957 25.3377 18.8531C25.3127 18.9104 25.2761 18.962 25.2302 19.0046C25.1843 19.0471 25.1302 19.0798 25.0711 19.1004C25.012 19.1211 24.9493 19.1294 24.8869 19.1247H19.702C19.5651 19.1163 19.428 19.136 19.299 19.1825C19.17 19.2291 19.0519 19.3016 18.952 19.3955C18.8522 19.4895 18.7726 19.6029 18.7181 19.7287C18.6637 19.8546 18.6357 19.9902 18.6357 20.1274C18.6357 20.2645 18.6637 20.4002 18.7181 20.526C18.7726 20.6519 18.8522 20.7653 18.952 20.8592C19.0519 20.9532 19.17 21.0256 19.299 21.0722C19.428 21.1188 19.5651 21.1385 19.702 21.13C20.8256 21.13 21.7415 21.9864 21.7415 23.0391C21.7415 24.0918 20.8256 24.9481 19.702 24.9481Z" fill="#4299E1"/>
<path d="M24.8874 18.2177H19.7025C18.5776 18.2177 17.6617 19.074 17.6617 20.1267C17.6617 21.1794 18.5776 22.0358 19.7025 22.0358C19.8393 22.0273 19.9765 22.047 20.1054 22.0936C20.2344 22.1402 20.3525 22.2127 20.4524 22.3066C20.5523 22.4005 20.6319 22.5139 20.6863 22.6398C20.7407 22.7656 20.7688 22.9013 20.7688 23.0384C20.7688 23.1756 20.7407 23.3112 20.6863 23.4371C20.6319 23.563 20.5523 23.6763 20.4524 23.7703C20.3525 23.8642 20.2344 23.9367 20.1054 23.9833C19.9765 24.0299 19.8393 24.0495 19.7025 24.0411H17.1094V24.9468H19.7025C20.8261 24.9468 21.742 24.0905 21.742 23.0391C21.742 21.9876 20.8261 21.13 19.7025 21.13C19.5647 21.1398 19.4264 21.1211 19.2962 21.0752C19.166 21.0292 19.0467 20.9569 18.9456 20.8627C18.8445 20.7686 18.764 20.6547 18.7088 20.5281C18.6537 20.4014 18.6253 20.2648 18.6253 20.1267C18.6253 19.9886 18.6537 19.852 18.7088 19.7254C18.764 19.5988 18.8445 19.4848 18.9456 19.3907C19.0467 19.2966 19.166 19.2243 19.2962 19.1783C19.4264 19.1323 19.5647 19.1136 19.7025 19.1234H24.8874C24.9489 19.1267 25.0104 19.1174 25.0682 19.0961C25.126 19.0748 25.1788 19.042 25.2235 18.9996C25.2682 18.9572 25.3037 18.9062 25.3281 18.8496C25.3524 18.7931 25.3649 18.7321 25.3649 18.6705C25.3649 18.609 25.3524 18.548 25.3281 18.4915C25.3037 18.4349 25.2682 18.3839 25.2235 18.3415C25.1788 18.2991 25.126 18.2663 25.0682 18.245C25.0104 18.2237 24.9489 18.2144 24.8874 18.2177V18.2177Z" fill="#F6AD55"/>
</svg>
