<svg width="30" height="30" viewBox="0 0 30 30" fill="none" xmlns="http://www.w3.org/2000/svg">
<circle cx="15" cy="15" r="15" fill="#4C51BF" fill-opacity="0.08"/>
<path d="M15 20.3334H21" stroke="#4C51BF" stroke-width="2" stroke-linecap="round" stroke-linejoin="round"/>
<path d="M18 9.33328C18.2652 9.06806 18.6249 8.91907 19 8.91907C19.1857 8.91907 19.3696 8.95565 19.5412 9.02672C19.7128 9.09779 19.8687 9.20196 20 9.33328C20.1313 9.4646 20.2355 9.6205 20.3066 9.79208C20.3776 9.96367 20.4142 10.1476 20.4142 10.3333C20.4142 10.519 20.3776 10.7029 20.3066 10.8745C20.2355 11.0461 20.1313 11.202 20 11.3333L11.6667 19.6666L9 20.3333L9.66667 17.6666L18 9.33328Z" stroke="#4C51BF" stroke-width="2" stroke-linecap="round" stroke-linejoin="round"/>
</svg>
