<svg width="72" height="72" viewBox="0 0 72 72" fill="none" xmlns="http://www.w3.org/2000/svg">
<g clip-path="url(#clip0)">
<path d="M36.0072 8.68669L20.5255 2.27365C20.0089 2.0599 19.4279 2.05976 18.911 2.27365C18.3942 2.48782 17.9834 2.89844 17.7696 3.41538L11.3569 18.897C11.1429 19.414 11.1429 19.9946 11.3569 20.5114C11.5708 21.0283 11.9816 21.439 12.4984 21.6529L27.98 28.0653C28.2441 28.1746 28.5175 28.2265 28.7864 28.2265C29.6142 28.2265 30.3996 27.736 30.736 26.9238L37.1488 11.4427C37.5947 10.3665 37.0835 9.13276 36.0072 8.68669Z" fill="#4299E1"/>
<path d="M36.0071 8.68661L28.2662 5.48022L20.239 24.8593L27.98 28.0654C28.2441 28.1747 28.5174 28.2266 28.7863 28.2266C29.6142 28.2266 30.3996 27.7361 30.7359 26.9238L37.1487 11.4427C37.5946 10.3664 37.0835 9.13267 36.0071 8.68661Z" fill="#4C51BF"/>
<path d="M29.5943 24.1678L14.1127 17.7553C13.2579 17.4015 12.2725 17.6458 11.682 18.3576L0.485846 31.857C0.0421753 32.3921 -0.109559 33.1111 0.080144 33.7796L6.0477 54.797C6.2239 55.4174 6.6739 55.9231 7.26958 56.1698C7.5289 56.2772 7.80326 56.3305 8.07677 56.3305C8.43199 56.3305 8.78622 56.2406 9.10432 56.0633L28.1854 45.4217C28.7923 45.0833 29.1937 44.4675 29.2582 43.7754L30.8875 26.3126C30.9734 25.3914 30.449 24.5218 29.5943 24.1678Z" fill="#DEECF1"/>
<path d="M29.5945 24.1678L21.8535 20.9617L7.26978 56.1698C7.52909 56.2772 7.80345 56.3305 8.07696 56.3305C8.43218 56.3305 8.78641 56.2406 9.10451 56.0633L28.1856 45.4217C28.7925 45.0833 29.1939 44.4675 29.2584 43.7754L30.8877 26.3126C30.9736 25.3914 30.4492 24.5217 29.5945 24.1678Z" fill="#A2D8F4"/>
<path d="M8.07594 56.3311C7.80707 56.3311 7.5337 56.2792 7.2696 56.1698C6.1934 55.724 5.68237 54.49 6.12815 53.4138L13.9098 34.6275C14.3555 33.5511 15.5894 33.0397 16.6657 33.4857C17.7421 33.9318 18.2532 35.1655 17.8075 36.242L10.0257 55.0283C9.68919 55.8404 8.90366 56.3311 8.07594 56.3311Z" fill="#4C51BF"/>
<path d="M47.297 69.8869H2.10937C0.944576 69.8869 0 68.9423 0 67.7775C0 66.6124 0.944576 65.6681 2.10937 65.6681H47.297C49.8713 65.6681 51.9656 63.5735 51.9656 60.9992C51.9656 58.4248 49.8712 56.3306 47.297 56.3306C42.3964 56.3306 38.4094 52.3436 38.4094 47.4433C38.4094 42.5425 42.3965 38.5557 47.297 38.5557H69.8906C71.0556 38.5557 72 39.5 72 40.665C72 41.8298 71.0556 42.7744 69.8906 42.7744H47.297C44.7225 42.7744 42.6281 44.8687 42.6281 47.4433C42.6281 50.0174 44.7226 52.1119 47.297 52.1119C52.1976 52.1119 56.1844 56.0989 56.1844 60.9992C56.1844 65.8999 52.1976 69.8869 47.297 69.8869Z" fill="#4299E1"/>
<path d="M69.8907 38.5554H47.2971C42.3965 38.5554 38.4095 42.5423 38.4095 47.443C38.4095 52.3435 42.3966 56.3303 47.2971 56.3303C49.8714 56.3303 51.9657 58.4245 51.9657 60.9989C51.9657 63.5733 49.8712 65.6678 47.2971 65.6678H36V69.8865H47.2971C52.1977 69.8865 56.1844 65.8996 56.1844 60.9989C56.1844 56.0984 52.1976 52.1116 47.2971 52.1116C44.7225 52.1116 42.6282 50.017 42.6282 47.443C42.6282 44.8683 44.7227 42.7741 47.2971 42.7741H69.8907C71.0556 42.7741 72.0001 41.8295 72.0001 40.6647C72.0001 39.4997 71.0556 38.5554 69.8907 38.5554Z" fill="#F6AD55"/>
</g>
<defs>
<clipPath id="clip0">
<rect width="72" height="72" fill="white"/>
</clipPath>
</defs>
</svg>
