<svg width="65" height="65" viewBox="0 0 65 65" fill="none" xmlns="http://www.w3.org/2000/svg">
<path fill-rule="evenodd" clip-rule="evenodd" d="M32.835 64.022C50.5081 64.022 64.835 49.6902 64.835 32.011C64.835 14.3318 50.5081 0 32.835 0C15.1618 0 0.834961 14.3318 0.834961 32.011C0.834961 49.6902 15.1618 64.022 32.835 64.022Z" fill="#4C51BF" fill-opacity="0.08"/>
<g clip-path="url(#clip0)">
<path d="M27.7781 39.5817L26.7783 39.5982C26.5022 39.6027 26.282 39.8303 26.2866 40.1064C26.2911 40.3825 26.5187 40.6026 26.7948 40.5981L27.7946 40.5815C28.0707 40.577 28.2909 40.3494 28.2863 40.0734C28.2817 39.7973 28.0542 39.5771 27.7781 39.5817Z" fill="#4C51BF"/>
<path d="M41.7761 39.3505L29.7778 39.5486C29.5017 39.5532 29.2815 39.7807 29.2861 40.0568C29.2906 40.3329 29.5182 40.5531 29.7943 40.5485L41.7926 40.3503C42.0687 40.3458 42.2889 40.1182 42.2843 39.8421C42.2798 39.5661 42.0522 39.3459 41.7761 39.3505Z" fill="#4C51BF"/>
<path d="M27.7283 36.5821L26.7284 36.5986C26.4524 36.6032 26.2322 36.8307 26.2368 37.1068C26.2413 37.3829 26.4689 37.603 26.745 37.5985L27.7448 37.582C28.0209 37.5774 28.2411 37.3499 28.2365 37.0738C28.2319 36.7977 28.0044 36.5775 27.7283 36.5821Z" fill="#4C51BF"/>
<path d="M41.7268 36.3509L29.7284 36.5491C29.4524 36.5536 29.2322 36.7812 29.2368 37.0572C29.2413 37.3333 29.4689 37.5535 29.745 37.5489L41.7433 37.3508C42.0194 37.3462 42.2396 37.1187 42.235 36.8426C42.2304 36.5665 42.0029 36.3463 41.7268 36.3509Z" fill="#4C51BF"/>
<path d="M27.679 33.5825L26.6791 33.599C26.403 33.6035 26.1829 33.8311 26.1875 34.1072C26.192 34.3833 26.4196 34.6034 26.6956 34.5988L27.6955 34.5823C27.9716 34.5778 28.1917 34.3502 28.1872 34.0741C28.1826 33.7981 27.9551 33.5779 27.679 33.5825Z" fill="#4C51BF"/>
<path d="M41.677 33.3513L29.6786 33.5495C29.4026 33.554 29.1824 33.7816 29.187 34.0577C29.1915 34.3338 29.4191 34.5539 29.6952 34.5493L41.6935 34.3512C41.9696 34.3466 42.1897 34.1191 42.1852 33.843C42.1806 33.5669 41.9531 33.3468 41.677 33.3513Z" fill="#4C51BF"/>
<path d="M27.6297 30.5829L26.6298 30.5994C26.3537 30.604 26.1336 30.8315 26.1381 31.1076C26.1427 31.3837 26.3702 31.6038 26.6463 31.5993L27.6462 31.5828C27.9223 31.5782 28.1424 31.3507 28.1379 31.0746C28.1333 30.7985 27.9058 30.5783 27.6297 30.5829Z" fill="#4C51BF"/>
<path d="M41.4763 27.2538L29.478 27.4519C29.2019 27.4565 28.9817 27.684 28.9863 27.9601C28.9908 28.2362 29.2184 28.4564 29.4945 28.4518L41.4928 28.2537C41.7689 28.2491 41.9891 28.0216 41.9845 27.7455C41.98 27.4694 41.7524 27.2492 41.4763 27.2538Z" fill="#4C51BF"/>
<path d="M27.5799 27.5833L26.58 27.5998C26.3039 27.6044 26.0838 27.8319 26.0883 28.108C26.0929 28.3841 26.3204 28.6043 26.5965 28.5997L27.5964 28.5832C27.8725 28.5786 28.0926 28.3511 28.0881 28.075C28.0835 27.7989 27.856 27.5788 27.5799 27.5833Z" fill="#4C51BF"/>
<path d="M41.5779 27.3521L29.5795 27.5503C29.3034 27.5548 29.0833 27.7824 29.0878 28.0585C29.0924 28.3345 29.3199 28.5547 29.596 28.5501L41.5944 28.352C41.8705 28.3474 42.0906 28.1199 42.0861 27.8438C42.0815 27.5677 41.854 27.3476 41.5779 27.3521Z" fill="#4C51BF"/>
<path d="M45.0373 25.2633C45.034 25.2195 45.0248 25.1764 45.0096 25.1352C45.0039 25.1193 44.9996 25.1039 44.9924 25.0885C44.9672 25.0345 44.9325 24.9854 44.89 24.9436L37.7753 18.0602C37.7321 18.0191 37.682 17.986 37.6272 17.9626C37.6116 17.9559 37.596 17.9521 37.5804 17.9469C37.5384 17.9332 37.4947 17.9252 37.4505 17.923C37.442 17.9247 37.4324 17.9193 37.4214 17.9195L23.4234 18.1507C23.1473 18.1553 22.9271 18.3828 22.9317 18.6589L22.9564 20.1587L20.4568 20.2C20.1807 20.2045 19.9606 20.4321 19.9651 20.7082L20.411 47.7045C20.4155 47.9806 20.6431 48.2007 20.9192 48.1961L41.9163 47.8494C42.1924 47.8448 42.4125 47.6173 42.408 47.3412L42.3667 44.8415L44.8664 44.8002C45.1424 44.7957 45.3626 44.5681 45.358 44.2921L45.0443 25.2946C45.0441 25.2836 45.0384 25.2742 45.0373 25.2633ZM37.9496 19.618L43.3292 24.8229L38.037 24.9103L37.9496 19.618ZM41.3999 46.8578L21.4026 47.188L20.9732 21.1916L22.973 21.1585L23.361 44.6553C23.3656 44.9314 23.5931 45.1516 23.8692 45.147L41.3668 44.858L41.3999 46.8578ZM44.3499 43.8086L24.3526 44.1389L23.9398 19.1423L36.938 18.9276L37.0454 25.4267C37.0499 25.7028 37.2775 25.923 37.5536 25.9184L44.0527 25.8111L44.3499 43.8086Z" fill="#4C51BF"/>
<path d="M29.4971 22.551L26.4975 22.6005C26.2214 22.6051 26.0013 22.8326 26.0058 23.1087L26.0554 26.1083C26.0599 26.3844 26.2875 26.6045 26.5635 26.6L29.5631 26.5504C29.8392 26.5459 30.0594 26.3183 30.0548 26.0422L30.0053 23.0426C30.0007 22.7666 29.7732 22.5464 29.4971 22.551ZM29.0467 25.5588L27.047 25.5918L27.0139 23.5921L29.0137 23.5591L29.0467 25.5588Z" fill="#4C51BF"/>
</g>
<defs>
<clipPath id="clip0">
<rect width="30" height="30" fill="white" transform="translate(17.4243 18.2498) rotate(-0.946184)"/>
</clipPath>
</defs>
</svg>
