<svg width="64" height="64" viewBox="0 0 64 64" fill="none" xmlns="http://www.w3.org/2000/svg">
<path fill-rule="evenodd" clip-rule="evenodd" d="M32 64C49.6731 64 64 49.6731 64 32C64 14.3269 49.6731 0 32 0C14.3269 0 0 14.3269 0 32C0 49.6731 14.3269 64 32 64Z" fill="#4C51BF" fill-opacity="0.08"/>
<g clip-path="url(#clip0)">
<path d="M32.6644 39.3349H22.9221C22.6792 39.3349 22.4824 39.138 22.4824 38.8952C22.4824 38.6523 22.6792 38.4554 22.9221 38.4554H32.6644C32.9073 38.4554 33.1041 38.6523 33.1041 38.8952C33.1041 39.138 32.9073 39.3349 32.6644 39.3349Z" fill="#4C51BF"/>
<path d="M37.1629 32.3555H22.9221C22.6792 32.3555 22.4824 32.1586 22.4824 31.9158C22.4824 31.673 22.6792 31.4761 22.9221 31.4761H37.1629C37.4058 31.4761 37.6026 31.673 37.6026 31.9158C37.6026 32.1586 37.4057 32.3555 37.1629 32.3555Z" fill="#4C51BF"/>
<path d="M37.1629 35.8452H22.9221C22.6792 35.8452 22.4824 35.6483 22.4824 35.4055C22.4824 35.1626 22.6792 34.9658 22.9221 34.9658H37.1629C37.4058 34.9658 37.6026 35.1626 37.6026 35.4055C37.6026 35.6483 37.4057 35.8452 37.1629 35.8452Z" fill="#4C51BF"/>
<path d="M30.0425 24.1405H22.9221C22.6792 24.1405 22.4824 23.9437 22.4824 23.7008C22.4824 23.458 22.6792 23.2611 22.9221 23.2611H30.0425C30.2854 23.2611 30.4822 23.458 30.4822 23.7008C30.4822 23.9437 30.2854 24.1405 30.0425 24.1405Z" fill="#4C51BF"/>
<path d="M37.1629 28.8658H22.9221C22.6792 28.8658 22.4824 28.6689 22.4824 28.426C22.4824 28.1832 22.6792 27.9863 22.9221 27.9863H37.1629C37.4058 27.9863 37.6026 28.1832 37.6026 28.426C37.6026 28.6689 37.4057 28.8658 37.1629 28.8658Z" fill="#4C51BF"/>
<path d="M39.1225 43.7279C39.1181 43.7279 39.1138 43.7278 39.1094 43.7277C38.9721 43.7237 38.8446 43.6557 38.7648 43.544L37.376 41.602C37.2348 41.4044 37.2804 41.1298 37.4779 40.9886C37.6753 40.8474 37.9501 40.8929 38.0913 41.0905L39.144 42.5625L41.8876 39.1718C42.0403 38.983 42.3172 38.9537 42.5061 39.1065C42.6949 39.2592 42.724 39.5361 42.5713 39.7249L39.4642 43.5648C39.3807 43.6682 39.2549 43.7279 39.1225 43.7279Z" fill="#4C51BF"/>
<path d="M33.8426 21.1402H26.243C25.5205 21.1402 24.9326 20.5525 24.9326 19.8299V18.3102C24.9326 17.5878 25.5205 17 26.243 17H33.8426C34.5651 17 35.1529 17.5878 35.1529 18.3103V19.83C35.1529 20.5525 34.5651 21.1402 33.8426 21.1402ZM26.243 17.8794C26.0054 17.8794 25.8121 18.0727 25.8121 18.3103V19.83C25.8121 20.0675 26.0054 20.2608 26.243 20.2608H33.8426C34.0801 20.2608 34.2734 20.0676 34.2734 19.83V18.3103C34.2734 18.0727 34.0801 17.8794 33.8426 17.8794H26.243Z" fill="#4C51BF"/>
<path d="M40.8551 34.6893C40.6122 34.6893 40.4154 34.4925 40.4154 34.2496V20.5344C40.4154 19.9695 39.9557 19.5098 39.3908 19.5098H36.7586C36.5157 19.5098 36.3188 19.3129 36.3188 19.0701C36.3188 18.8272 36.5157 18.6304 36.7586 18.6304H39.3908C40.4407 18.6304 41.2948 19.4845 41.2948 20.5344V34.2496C41.2948 34.4925 41.098 34.6893 40.8551 34.6893Z" fill="#4C51BF"/>
<path d="M35.6055 47H20.6941C19.6442 47 18.79 46.1459 18.79 45.096V20.5344C18.79 19.4845 19.6442 18.6304 20.6941 18.6304H23.3263C23.5692 18.6304 23.766 18.8272 23.766 19.0701C23.766 19.3129 23.5692 19.5098 23.3263 19.5098H20.6941C20.1291 19.5098 19.6695 19.9694 19.6695 20.5344V45.096C19.6695 45.661 20.1291 46.1206 20.6941 46.1206H35.6055C35.8484 46.1206 36.0452 46.3175 36.0452 46.5603C36.0452 46.8032 35.8484 47 35.6055 47Z" fill="#4C51BF"/>
<path d="M39.5556 47C36.4382 47 33.9019 44.4638 33.9019 41.3463C33.9019 38.2288 36.4382 35.6926 39.5556 35.6926C42.6731 35.6926 45.2094 38.2288 45.2094 41.3463C45.2094 44.4638 42.6731 47 39.5556 47ZM39.5556 36.572C36.9231 36.572 34.7813 38.7137 34.7813 41.3463C34.7813 43.9789 36.923 46.1206 39.5556 46.1206C42.1882 46.1206 44.3299 43.9789 44.3299 41.3463C44.3299 38.7137 42.1882 36.572 39.5556 36.572Z" fill="#4C51BF"/>
</g>
<defs>
<clipPath id="clip0">
<rect width="30" height="30" fill="white" transform="translate(17 17)"/>
</clipPath>
</defs>
</svg>
