<svg width="65" height="65" viewBox="0 0 65 65" fill="none" xmlns="http://www.w3.org/2000/svg">
<path fill-rule="evenodd" clip-rule="evenodd" d="M32.835 64.022C50.5081 64.022 64.835 49.6902 64.835 32.011C64.835 14.3318 50.5081 0 32.835 0C15.1618 0 0.834961 14.3318 0.834961 32.011C0.834961 49.6902 15.1618 64.022 32.835 64.022Z" fill="#4C51BF" fill-opacity="0.08"/>
<path d="M39 28H38V26C38 23.24 35.76 21 33 21C30.24 21 28 23.24 28 26V28H27C25.9 28 25 28.9 25 30V40C25 41.1 25.9 42 27 42H39C40.1 42 41 41.1 41 40V30C41 28.9 40.1 28 39 28ZM33 37C31.9 37 31 36.1 31 35C31 33.9 31.9 33 33 33C34.1 33 35 33.9 35 35C35 36.1 34.1 37 33 37ZM36.1 28H29.9V26C29.9 24.29 31.29 22.9 33 22.9C34.71 22.9 36.1 24.29 36.1 26V28Z" fill="#4C51BF"/>
</svg>
