<svg width="30" height="30" viewBox="0 0 30 30" fill="none" xmlns="http://www.w3.org/2000/svg">
<path d="M8.33301 15.3333C8.33301 13.3066 9.97301 11.6666 11.9997 11.6666H18.9997C20.473 11.6666 21.6663 12.86 21.6663 14.3333C21.6663 15.8066 20.473 17 18.9997 17H13.333C12.413 17 11.6663 16.2533 11.6663 15.3333C11.6663 14.4133 12.413 13.6666 13.333 13.6666H18.333V15H13.273C12.9063 15 12.9063 15.6666 13.273 15.6666H18.9997C19.733 15.6666 20.333 15.0666 20.333 14.3333C20.333 13.6 19.733 13 18.9997 13H11.9997C10.713 13 9.66634 14.0466 9.66634 15.3333C9.66634 16.62 10.713 17.6666 11.9997 17.6666H18.333V19H11.9997C9.97301 19 8.33301 17.36 8.33301 15.3333Z" fill="#E53E3E"/>
<path d="M30 15C30 23.2843 23.2843 30 15 30C6.71573 30 0 23.2843 0 15C0 6.71573 6.71573 0 15 0C23.2843 0 30 6.71573 30 15Z" fill="#E53E3E" fill-opacity="0.3"/>
</svg>
