<svg width="64" height="64" viewBox="0 0 64 64" fill="none" xmlns="http://www.w3.org/2000/svg">
<path fill-rule="evenodd" clip-rule="evenodd" d="M32 64C49.6731 64 64 49.6731 64 32C64 14.3269 49.6731 0 32 0C14.3269 0 0 14.3269 0 32C0 49.6731 14.3269 64 32 64Z" fill="#4C51BF" fill-opacity="0.08"/>
<path d="M37.2598 41.172C37.0172 41.172 36.8203 41.3688 36.8203 41.6115V42.4286C36.8203 42.6712 37.0172 42.868 37.2598 42.868C37.5026 42.868 37.6992 42.6712 37.6992 42.4286V41.6115C37.6992 41.3688 37.5026 41.172 37.2598 41.172Z" fill="#4C51BF"/>
<path d="M38.498 41.172C38.2554 41.172 38.0586 41.3688 38.0586 41.6115V42.4286C38.0586 42.6712 38.2554 42.868 38.498 42.868C38.7407 42.868 38.9375 42.6712 38.9375 42.4286V41.6115C38.9375 41.3688 38.7407 41.172 38.498 41.172Z" fill="#4C51BF"/>
<path d="M39.7358 41.172C39.4932 41.172 39.2964 41.3688 39.2964 41.6115V42.4286C39.2964 42.6712 39.4932 42.868 39.7358 42.868C39.9785 42.868 40.1753 42.6712 40.1753 42.4286V41.6115C40.1753 41.3688 39.9785 41.172 39.7358 41.172Z" fill="#4C51BF"/>
<path d="M37.3544 25.9355H22.8843C22.6417 25.9355 22.4448 26.1322 22.4448 26.375C22.4448 26.6178 22.6417 26.8145 22.8843 26.8145H37.3544C37.597 26.8145 37.7939 26.6178 37.7939 26.375C37.7939 26.1322 37.597 25.9355 37.3544 25.9355Z" fill="#4C51BF"/>
<path d="M37.3544 28.9238H22.8843C22.6417 28.9238 22.4448 29.1204 22.4448 29.3633C22.4448 29.6061 22.6417 29.8027 22.8843 29.8027H37.3544C37.597 29.8027 37.7939 29.6061 37.7939 29.3633C37.7939 29.1204 37.597 28.9238 37.3544 28.9238Z" fill="#4C51BF"/>
<path d="M37.7939 32.3516C37.7939 32.1087 37.597 31.9121 37.3544 31.9121H22.8843C22.6417 31.9121 22.4448 32.1087 22.4448 32.3516C22.4448 32.5944 22.6417 32.791 22.8843 32.791H37.3544C37.597 32.791 37.7939 32.5944 37.7939 32.3516Z" fill="#4C51BF"/>
<path d="M22.8843 36.1309C22.6417 36.1309 22.4448 36.3275 22.4448 36.5703C22.4448 36.8132 22.6417 37.0098 22.8843 37.0098H29.3918C29.6347 37.0098 29.8313 36.8132 29.8313 36.5703C29.8313 36.3275 29.6347 36.1309 29.3918 36.1309H22.8843Z" fill="#4C51BF"/>
<path d="M22.8843 22.8285H26.9064C27.1493 22.8285 27.3459 22.6317 27.3459 22.389C27.3459 22.1462 27.1493 21.9496 26.9064 21.9496H22.8843C22.6417 21.9496 22.4448 22.1462 22.4448 22.389C22.4448 22.6317 22.6417 22.8285 22.8843 22.8285Z" fill="#4C51BF"/>
<path d="M22.8843 20.6427H26.9064C27.1493 20.6427 27.3459 20.4459 27.3459 20.2032C27.3459 19.9604 27.1493 19.7638 26.9064 19.7638H22.8843C22.6417 19.7638 22.4448 19.9604 22.4448 20.2032C22.4448 20.4459 22.6417 20.6427 22.8843 20.6427Z" fill="#4C51BF"/>
<path d="M38.498 34.5488C35.0653 34.5488 32.2725 37.3416 32.2725 40.7744C32.2725 44.2072 35.0653 47 38.498 47C41.9308 47 44.7236 44.2072 44.7236 40.7744C44.7236 37.3416 41.9308 34.5488 38.498 34.5488ZM38.498 46.1211C35.5498 46.1211 33.1514 43.7226 33.1514 40.7744C33.1514 37.8262 35.5498 35.4277 38.498 35.4277C41.4463 35.4277 43.8447 37.8262 43.8447 40.7744C43.8447 43.7226 41.4463 46.1211 38.498 46.1211Z" fill="#4C51BF"/>
<path d="M32.4436 44.6668H20.5163C20.322 44.6668 20.1641 44.5089 20.1641 44.3148V18.2312C20.1641 18.0368 20.322 17.8789 20.5163 17.8789H35.1254V21.9816C35.1254 22.4485 35.5051 22.8285 35.972 22.8285H40.0747V33.3051C40.0747 33.5477 40.2716 33.7445 40.5142 33.7445C40.757 33.7445 40.9536 33.5477 40.9536 33.3051V22.389C40.9536 22.2725 40.9074 22.1606 40.825 22.0782L35.8754 17.1286C35.793 17.0462 35.6813 17 35.5648 17H20.5163C19.8374 17 19.2852 17.5523 19.2852 18.2312V44.3148C19.2852 44.9936 19.8374 45.5457 20.5161 45.5457H32.4436C32.6864 45.5457 32.883 45.3491 32.883 45.1062C32.883 44.8636 32.6864 44.6668 32.4436 44.6668ZM36.0043 18.5003L39.4533 21.9496H36.0043V18.5003Z" fill="#4C51BF"/>
<path d="M40.8972 39.5119H40.8464V38.8296C40.8464 37.5346 39.7928 36.481 38.4978 36.481C37.2028 36.481 36.1493 37.5346 36.1493 38.8296V39.5119H36.0982C35.7254 39.5119 35.4219 39.8156 35.4219 40.1884V43.6205C35.4219 43.9936 35.7254 44.2971 36.0982 44.2971H40.8972C41.2703 44.2971 41.5735 43.9936 41.5735 43.6205V40.1884C41.5738 39.8156 41.2703 39.5119 40.8972 39.5119ZM37.0282 38.8298C37.0282 38.0193 37.6873 37.3602 38.4978 37.3602C39.3081 37.3602 39.9675 38.0193 39.9675 38.8298V39.5121H37.0282V38.8298ZM40.6949 43.4182H36.3008V40.3908H40.6949V43.4182Z" fill="#4C51BF"/>
</svg>
